<?xml version="1.0" encoding="UTF-8" standalone="no"?>
<!DOCTYPE svg PUBLIC "-//W3C//DTD SVG 20010904//EN" "http://www.w3.org/TR/2001/REC-SVG-20010904/DTD/svg10.dtd">
<svg version="1.0" xmlns="http://www.w3.org/2000/svg" width="700.000000pt" height="700.000000pt" viewBox="0 0 700.000000 700.000000" preserveAspectRatio="xMidYMid meet">
<metadata>
Created by potrace 1.11, written by Peter Selinger 2001-2013
</metadata>
<g transform="translate(0.000000,700.000000) scale(0.100000,-0.100000)" fill="#000000" stroke="none">
<path d="M2632 6962 c-34 -10 -79 -58 -92 -98 -14 -43 -8 -108 20 -195 11 -34 20 -64 20 -68 0 -3 -22 -14 -49 -24 -55 -19 -81 -51 -88 -107 l-5 -37 -60 30 c-49 23 -70 28 -112 25 -90 -7 -173 -64 -197 -135 -17 -53 -4 -144 34 -232 l33 -78 -28 -12 c-76 -34 -112 -155 -70 -237 33 -65 84 -102 200 -144 l74 -27 -37 -23 -38 -24 -46 28 c-166 98 -256 110 -352 46 -62 -42 -91 -88 -91 -148 0 -56 17 -95 79 -174 l44 -58 -24 -67 c-13 -38 -23 -76 -22 -85 2 -9 -3 -19 -10 -21 -9 -4 -14 15 -19 71 -13 147 -53 217 -132 228 -32 4 -47 0 -77 -20 l-37 -25 -6 27 c-40 180 -75 238 -153 250 -14 2 -35 1 -47 -2 -28 -7 -79 -60 -95 -97 l-12 -30 -57 55 c-63 60 -107 76 -162 57 -104 -36 -137 -122 -115 -296 l7 -60 -54 -34 c-76 -47 -99 -108 -70 -181 18 -45 93 -116 161 -152 47 -25 49 -33 12 -60 -23 -18 -29 -18 -81 -4 -134 35 -218 -21 -227 -151 -1 -8 -16 -10 -46 -8 -86 7 -146 -30 -186 -114 -59 -125 -3 -244 146 -311 28 -12 51 -23 53 -25 1 -1 -5 -16 -13 -33 -15 -29 -14 -36 3 -94 25 -80 53 -103 125 -101 31 1 86 14 135 32 122 46 154 39 111 -24 -18 -26 -30 -33 -55 -33 -31 0 -104 -28 -104 -41 0 -3 -9 -17 -18 -29 l-18 -24 -65 45 c-98 68 -163 82 -234 53 -50 -21 -70 -59 -69 -131 l0 -62 -50 10 c-106 19 -187 -9 -223 -76 -25 -46 -23 -143 2 -187 25 -43 103 -97 161 -111 l42 -11 -19 -41 c-10 -23 -19 -55 -19 -72 0 -80 116 -160 215 -148 17 2 56 17 89 34 32 16 60 29 61 27 2 -2 5 -21 8 -44 l6 -41 -53 -16 c-30 -10 -66 -27 -80 -38 -105 -82 -54 -259 86 -297 20 -5 61 -9 91 -8 l55 1 17 -59 c27 -100 96 -147 195 -133 43 6 137 48 166 76 11 10 31 25 45 34 24 16 26 16 45 -5 19 -22 54 -74 54 -81 0 -1 -19 -23 -43 -49 -70 -73 -101 -134 -100 -194 2 -106 65 -172 154 -159 55 8 159 48 252 97 14 7 19 3 27 -19 28 -75 50 -94 118 -98 66 -5 147 29 202 84 33 33 56 71 84 139 21 50 42 92 47 92 5 0 18 -14 31 -30 19 -27 27 -30 58 -25 19 3 46 13 59 23 34 25 95 131 127 220 15 42 31 87 36 100 l8 24 38 -24 c130 -80 266 -238 377 -438 66 -119 116 -204 220 -370 39 -63 86 -141 104 -173 l33 -58 -17 -77 c-45 -205 -141 -368 -275 -467 -25 -18 -150 -87 -278 -154 -127 -66 -257 -136 -287 -156 -31 -19 -58 -35 -61 -35 -2 0 -30 -19 -62 -42 -48 -36 -65 -42 -112 -45 -69 -3 -147 -20 -180 -38 -20 -11 -29 -11 -50 0 -53 28 -144 44 -224 41 -220 -8 -352 -149 -345 -368 5 -192 145 -323 353 -332 77 -3 128 6 184 31 21 9 39 16 42 15 3 -1 25 -9 50 -18 92 -33 256 -27 331 12 23 12 31 11 65 -5 93 -45 211 -47 301 -4 30 14 37 14 75 -2 67 -28 208 -29 283 -3 50 17 65 18 90 8 114 -45 212 -46 307 -4 36 16 40 16 80 -2 56 -25 222 -26 287 -1 42 17 46 16 121 -7 58 -19 92 -24 136 -20 61 4 120 20 142 37 8 6 34 2 82 -13 59 -19 85 -22 153 -17 45 2 101 12 124 22 41 16 44 16 100 -6 80 -31 198 -31 267 -1 48 22 50 22 95 5 72 -28 230 -24 299 6 52 23 55 24 89 7 82 -39 208 -52 306 -30 86 18 178 88 218 165 24 47 46 144 43 184 -11 123 -34 175 -110 244 -70 64 -143 92 -252 96 -81 4 -170 -13 -199 -37 -8 -7 -28 -5 -60 5 -26 8 -60 18 -75 21 -18 4 -38 21 -54 46 -48 72 -125 117 -414 241 -297 127 -417 211 -513 362 -58 90 -88 181 -103 312 -4 33 -8 74 -10 90 -6 51 -5 271 2 327 33 278 174 519 390 665 88 60 144 86 148 71 2 -7 13 -52 24 -99 28 -118 56 -173 100 -200 39 -23 66 -27 94 -15 12 5 18 1 23 -16 31 -102 118 -228 172 -249 56 -21 173 0 173 31 0 18 20 11 46 -15 93 -93 191 -107 280 -39 34 26 49 32 66 26 44 -16 116 -14 154 4 47 22 94 95 94 143 0 40 -29 95 -66 124 l-24 19 20 25 c11 14 20 34 20 44 0 11 7 20 15 20 67 6 118 41 135 94 10 32 13 33 75 37 80 5 113 27 140 94 11 27 34 63 51 79 17 17 33 37 36 45 4 13 14 11 70 -8 120 -43 194 -26 229 52 16 37 25 66 28 97 1 4 19 3 40 -1 148 -27 250 45 257 180 6 119 -70 199 -217 229 l-56 12 1 52 c0 63 -28 115 -78 146 -75 47 -177 31 -299 -46 -22 -14 -40 -23 -41 -21 -26 37 -45 85 -44 112 1 43 -20 77 -66 106 -20 12 -36 23 -36 24 0 1 22 1 50 0 95 -2 163 49 176 132 l6 45 47 -5 c25 -3 57 -8 71 -11 41 -10 138 -21 157 -19 89 13 120 28 149 71 28 43 28 83 -1 138 l-25 50 20 15 c124 90 160 139 160 219 0 83 -49 172 -108 197 -39 16 -127 14 -189 -5 l-33 -10 0 50 c0 62 -19 101 -65 129 l-35 21 25 47 c33 62 33 122 0 188 -36 72 -84 98 -173 91 -37 -3 -92 -15 -122 -27 -49 -19 -55 -20 -66 -6 -7 10 -9 29 -4 49 3 17 1 55 -5 83 l-12 52 48 40 c50 44 89 111 89 155 0 68 -58 145 -127 168 -55 18 -161 12 -207 -13 -15 -8 -23 -6 -37 13 -10 13 -19 27 -19 31 0 18 -89 58 -128 58 -55 0 -83 -13 -173 -82 l-77 -59 -58 39 c-54 36 -61 38 -97 29 -40 -10 -122 -84 -155 -139 l-16 -27 -26 31 -27 32 38 37 c40 39 82 100 94 137 14 47 -4 108 -47 157 -52 59 -106 87 -172 87 -70 0 -114 -21 -189 -92 l-65 -60 -7 27 c-5 16 -8 56 -9 90 -1 42 -7 67 -18 80 -16 18 -15 21 27 62 82 80 107 162 73 232 -21 44 -75 93 -121 110 l-35 12 -4 81 c-2 50 -10 95 -21 116 -39 80 -152 113 -236 70 -41 -20 -151 -124 -151 -142 0 -4 -19 6 -42 22 -24 16 -61 32 -82 35 -25 3 -49 16 -67 35 -84 87 -207 86 -267 -4 -23 -34 -82 -180 -82 -204 0 -9 -16 -11 -65 -6 -57 6 -69 4 -108 -19 -89 -52 -93 -138 -16 -306 22 -46 39 -85 39 -86 0 -1 -20 -10 -45 -20 -51 -19 -105 -70 -105 -98 0 -11 -5 -17 -12 -14 -14 4 -15 22 -4 117 22 184 9 312 -35 351 -26 23 -62 34 -84 25 -12 -4 -15 3 -15 32 0 48 -25 145 -46 177 -40 61 -151 89 -205 53 -23 -15 -26 -14 -82 47 -86 94 -172 130 -255 107z m200 -203 c58 -60 104 -99 116 -99 11 0 32 14 46 31 19 23 33 30 53 27 44 -5 66 -62 70 -178 1 -52 5 -105 8 -117 8 -35 41 -38 86 -7 22 15 42 24 45 21 11 -11 1 -282 -11 -295 -1 -1 -14 2 -29 8 -48 18 -100 12 -141 -16 -31 -20 -43 -24 -60 -16 -12 6 -43 9 -68 7 -42 -2 -47 0 -48 19 -4 120 -51 242 -108 282 -62 44 -143 34 -189 -22 -24 -29 -31 -32 -40 -21 -16 19 -24 69 -14 85 8 12 22 17 92 28 68 12 74 49 29 178 -41 117 -43 172 -7 185 44 16 72 -1 170 -100z m1669 -12 c13 -16 16 -39 13 -110 -1 -50 1 -98 6 -107 5 -9 33 -24 62 -34 60 -19 108 -60 108 -91 0 -27 -49 -96 -85 -122 -50 -35 -85 -72 -85 -92 0 -23 25 -51 45 -51 16 0 25 -12 30 -39 3 -14 -3 -18 -23 -19 -15 0 -35 0 -45 -1 -47 -3 -144 -130 -176 -233 -12 -35 -14 -36 -66 -40 -30 -1 -55 -1 -55 2 0 3 9 29 20 59 24 62 28 127 10 162 -16 31 -50 58 -72 59 -24 0 -23 5 11 60 80 130 79 278 -4 365 -25 28 -40 35 -69 35 l-36 0 0 61 0 61 31 -26 c45 -39 85 -57 106 -49 20 7 49 36 108 107 61 75 127 92 166 43z m-563 -5 c17 -16 35 -47 42 -71 13 -48 12 -133 -2 -171 -13 -34 -2 -69 26 -81 19 -9 33 -7 70 9 l46 21 15 -30 c39 -75 22 -153 -59 -267 -31 -44 -56 -87 -56 -96 0 -27 38 -56 73 -56 99 -1 101 -28 10 -207 -36 -70 -37 -72 -117 -109 -44 -21 -102 -54 -129 -72 -31 -22 -48 -28 -44 -19 8 21 53 239 61 292 11 80 18 235 12 270 -13 69 -43 33 -63 -75 -27 -156 -105 -464 -119 -476 -7 -6 -26 -9 -43 -6 l-29 4 25 71 c47 133 35 232 -38 306 -44 44 -91 63 -126 50 -26 -9 -28 -6 -13 21 9 17 27 24 95 35 17 3 40 17 52 30 27 30 24 43 -40 177 -48 101 -64 163 -48 187 6 10 31 13 92 12 46 0 90 3 97 7 11 8 72 154 72 174 0 4 12 28 27 53 34 55 65 60 111 17z m-1594 -374 c12 -6 58 -47 103 -90 109 -105 129 -104 197 4 41 65 49 72 76 63 41 -13 65 -86 76 -230 10 -125 33 -148 110 -109 43 22 84 22 84 0 1 -6 2 -49 3 -96 l2 -85 -27 -2 c-16 -1 -41 -9 -57 -19 -70 -41 -82 -130 -30 -222 30 -54 30 -55 7 -48 -12 4 -33 10 -45 13 -12 3 -26 18 -33 37 -59 165 -197 346 -263 346 -30 0 -17 -57 32 -129 22 -33 57 -91 77 -128 31 -54 34 -65 18 -58 -39 17 -91 17 -123 0 -39 -20 -60 -64 -57 -123 l2 -44 -35 6 c-61 10 -111 26 -111 36 0 6 16 31 35 56 47 62 66 99 59 118 -9 23 -51 47 -129 71 -95 30 -148 58 -174 91 -40 50 -24 92 49 129 27 14 53 32 58 42 10 18 -2 62 -39 143 -49 103 -56 147 -34 189 8 17 17 31 18 31 1 0 20 7 42 14 41 15 74 13 109 -6z m873 -334 c13 -8 37 -31 55 -52 18 -20 54 -58 79 -85 44 -44 48 -47 75 -37 16 6 44 26 62 43 l33 32 30 -33 c16 -18 30 -41 30 -52 1 -11 2 -26 3 -32 3 -20 -13 -89 -29 -123 -29 -65 -42 -121 -34 -142 12 -32 60 -53 136 -59 37 -2 68 -6 69 -7 1 -1 -8 -26 -20 -55 -19 -44 -30 -57 -63 -72 -51 -23 -85 -70 -98 -137 l-11 -53 -33 25 c-19 13 -49 29 -67 35 -38 13 -37 11 -88 212 -49 191 -72 239 -90 193 -10 -27 2 -226 18 -303 9 -40 16 -79 16 -85 -1 -7 -17 -22 -36 -34 l-35 -23 -8 23 c-11 27 -56 77 -71 77 -5 0 -23 21 -39 47 -26 42 -28 50 -15 64 26 29 15 62 -45 137 -64 80 -97 142 -88 166 5 12 20 16 56 16 33 0 56 6 72 19 24 19 25 35 15 191 -8 110 43 153 121 104z m1810 -26 c37 -26 63 -71 56 -98 -3 -11 -23 -38 -45 -62 -52 -56 -108 -133 -108 -147 0 -7 20 -34 45 -60 25 -26 45 -57 45 -68 0 -39 -80 -108 -183 -158 -72 -35 -100 -67 -87 -101 5 -13 16 -34 24 -46 21 -34 12 -59 -35 -101 -35 -31 -49 -37 -78 -35 -35 3 -35 3 -46 68 -18 110 -63 164 -132 157 -36 -3 -34 5 12 58 15 17 52 58 82 93 79 90 93 108 93 126 0 57 -222 -101 -306 -218 l-21 -29 -7 49 c-7 46 -38 134 -74 213 -15 32 -14 35 4 48 13 10 33 12 69 8 62 -8 72 1 114 108 47 118 94 177 140 177 4 0 20 -26 35 -59 33 -71 63 -90 104 -64 40 26 51 35 87 70 97 93 152 111 212 71z m681 -227 c9 -5 33 -30 52 -56 l35 -47 55 6 c30 2 66 9 80 14 14 4 44 10 68 11 35 2 47 -2 72 -27 17 -17 30 -38 30 -46 0 -16 -63 -83 -129 -138 -26 -22 -31 -32 -25 -50 4 -13 13 -42 20 -65 l13 -43 -42 0 c-66 -1 -124 -33 -202 -115 l-71 -75 -38 26 c-21 15 -53 30 -72 36 -23 6 -34 15 -34 27 0 10 -11 35 -25 55 -14 20 -25 38 -25 40 0 2 44 32 98 66 147 95 185 137 109 123 -53 -9 -188 -63 -247 -98 -43 -25 -65 -32 -100 -30 -51 3 -108 -15 -182 -55 l-51 -28 -33 50 -34 50 39 46 c22 26 43 59 46 75 5 17 14 27 25 27 10 0 35 21 56 48 21 26 53 62 72 80 33 30 36 32 56 17 50 -36 96 -65 105 -65 14 0 111 57 136 80 34 31 97 70 112 70 8 0 22 -4 31 -9z m-1511 -246 c26 -67 35 -107 39 -172 3 -72 2 -84 -11 -79 -85 32 -278 80 -370 91 -27 3 -51 8 -53 10 -7 7 27 61 62 98 46 50 251 158 279 148 14 -5 32 -36 54 -96z m-2068 -12 c57 -29 106 -51 109 -48 3 2 12 -10 21 -27 23 -45 56 -66 138 -86 l73 -17 -8 -35 c-15 -73 -7 -162 23 -230 28 -67 30 -77 19 -146 -8 -53 19 -108 78 -159 107 -92 226 -118 423 -92 11 1 25 6 32 10 14 9 18 3 27 -38 4 -16 18 -46 32 -66 l25 -37 -23 -34 c-21 -31 -26 -33 -58 -26 -19 4 -44 5 -55 2 -14 -3 -31 4 -50 22 -53 49 -105 60 -185 40 -22 -6 -29 -1 -57 47 -18 30 -50 72 -72 93 -37 37 -42 40 -98 39 -32 -1 -67 -6 -79 -13 -19 -10 -24 -6 -53 38 -35 55 -91 102 -136 117 -27 9 -31 15 -36 62 -10 79 -29 94 -139 106 -103 11 -121 17 -137 41 -15 23 -14 30 10 109 l25 85 -32 52 c-18 29 -46 73 -64 97 -40 55 -41 85 -2 121 56 53 104 48 249 -27z m-694 -147 c29 -133 36 -152 66 -161 32 -11 68 3 105 40 19 19 39 35 45 35 17 0 36 -61 43 -135 10 -107 16 -132 40 -154 27 -25 59 -29 107 -12 32 10 41 9 73 -10 22 -12 72 -27 119 -33 79 -12 82 -13 79 -37 -6 -38 -15 -41 -78 -24 -67 18 -221 22 -280 7 -21 -6 -57 -13 -80 -16 -22 -3 -64 -14 -93 -26 l-53 -21 -37 28 c-80 61 -155 151 -219 264 -40 71 -57 86 -76 70 -20 -17 -13 -73 19 -146 46 -105 144 -219 265 -309 46 -34 55 -46 56 -73 1 -18 4 -50 8 -71 5 -34 3 -40 -19 -52 -14 -7 -37 -37 -51 -67 -15 -29 -32 -53 -39 -53 -6 0 -18 19 -25 43 -7 23 -19 64 -28 91 -8 28 -26 61 -39 74 -22 22 -30 24 -77 18 -29 -3 -70 -13 -91 -22 -30 -12 -44 -13 -62 -5 -13 6 -22 15 -19 19 2 4 -12 30 -33 57 l-38 50 22 17 c13 10 44 27 69 38 93 39 78 79 -54 146 -75 38 -144 85 -167 114 -26 32 -15 54 45 90 79 47 84 55 77 120 -19 169 -18 197 4 219 34 34 57 26 133 -48 67 -65 72 -68 102 -60 17 5 32 9 33 9 1 0 21 31 45 70 41 66 44 69 61 52 11 -11 27 -64 42 -136z m1230 118 c34 -24 51 -30 115 -39 67 -10 120 -37 165 -84 36 -38 64 -77 65 -92 0 -4 -28 -17 -62 -29 -87 -31 -169 -73 -264 -135 l-82 -53 -15 36 c-39 89 -41 165 -8 230 24 48 29 81 21 138 -7 44 4 69 24 57 6 -4 25 -17 41 -29z m2312 -186 c37 -60 84 -108 103 -108 9 0 57 20 107 44 81 40 119 50 161 47 17 -1 72 -61 72 -78 0 -8 -24 -38 -53 -67 -29 -30 -61 -70 -72 -90 -19 -35 -20 -35 -80 -35 -62 1 -137 -16 -191 -43 -16 -8 -44 -15 -63 -17 -109 -6 -228 -109 -261 -226 l-13 -46 -23 22 -24 22 44 47 c75 80 104 157 87 232 -8 35 -7 38 35 73 72 61 100 148 70 217 -6 12 0 21 21 32 42 23 50 20 80 -26z m-466 -107 c0 -25 2 -39 14 -106 3 -17 13 -35 24 -42 19 -12 90 -29 104 -25 4 1 12 -10 18 -25 19 -50 -5 -100 -86 -181 -82 -81 -85 -95 -29 -140 19 -15 34 -33 34 -39 0 -17 -62 -72 -115 -103 -67 -39 -144 -103 -145 -120 0 -10 20 -23 50 -35 27 -11 52 -25 54 -31 9 -23 -32 -80 -95 -131 -59 -49 -303 -183 -313 -172 -12 12 48 190 106 314 82 176 102 230 94 251 -6 15 -8 15 -27 -2 -58 -52 -190 -284 -225 -394 -9 -30 -20 -59 -24 -63 -18 -21 -81 187 -75 247 5 44 31 74 70 82 21 4 42 16 51 29 14 21 12 29 -12 96 -32 89 -53 177 -49 211 4 31 31 75 56 88 12 7 26 5 46 -5 63 -33 86 -14 108 93 20 93 43 150 66 162 11 7 31 5 56 -4 44 -16 54 -12 118 40 23 18 54 40 70 48 27 15 31 14 43 -1 6 -9 12 -28 13 -42z m1487 -13 c34 -72 48 -75 151 -40 111 39 142 45 173 33 27 -10 49 -56 43 -88 -2 -10 -4 -23 -4 -29 -2 -18 -71 -82 -154 -142 -50 -36 -86 -70 -97 -93 l-19 -36 32 -24 c18 -13 44 -29 60 -36 30 -13 51 -55 42 -83 -11 -34 -80 -46 -287 -54 -133 -4 -151 -29 -90 -128 42 -70 39 -99 -16 -127 -59 -30 -137 -42 -269 -42 -95 0 -130 4 -155 17 -18 9 -34 18 -36 19 -1 1 2 24 8 50 7 30 24 63 44 85 18 21 37 44 42 52 5 8 43 36 84 63 41 26 104 73 139 104 64 56 151 155 151 172 0 26 -60 -2 -195 -91 -121 -81 -113 -81 -110 8 1 43 8 88 14 101 14 26 10 77 -10 108 -20 33 -53 46 -98 40 l-41 -5 21 30 c29 40 75 67 102 60 12 -3 45 -21 74 -39 80 -51 93 -47 187 52 126 132 174 146 214 63z m-2580 -62 c15 -8 70 -60 121 -115 109 -119 119 -122 189 -57 54 51 70 49 101 -13 16 -31 18 -45 10 -80 -12 -55 1 -179 22 -206 4 -5 10 -27 14 -47 6 -30 4 -38 -8 -38 -24 0 -75 -66 -87 -112 -21 -77 6 -221 61 -331 11 -21 19 -40 17 -42 -2 -1 -18 -5 -35 -8 -23 -5 -33 -3 -34 6 -4 62 -40 174 -75 235 -46 78 -98 92 -186 51 -49 -23 -51 -23 -62 -5 -61 104 -126 174 -185 202 -65 30 -130 109 -125 154 1 8 2 21 3 27 0 7 20 25 44 39 65 40 67 45 67 171 0 115 12 164 42 176 26 10 80 7 106 -7z m1952 -217 c19 0 45 3 58 6 22 5 24 4 17 -17 -4 -13 -10 -70 -14 -128 -9 -115 -28 -168 -82 -229 -29 -34 -31 -34 -67 -21 -146 52 -241 174 -247 318 -1 17 -1 32 -1 32 1 0 28 11 61 25 53 21 71 24 150 19 50 -2 106 -5 125 -5z m1034 -58 c10 -8 14 -35 15 -84 0 -65 3 -74 26 -95 29 -24 70 -24 155 1 79 23 113 13 135 -39 15 -37 13 -82 -6 -113 -6 -9 -37 -34 -69 -55 -95 -61 -113 -81 -104 -118 3 -18 17 -49 30 -70 30 -46 30 -64 3 -79 -21 -11 -122 -8 -179 6 -184 43 -235 26 -243 -84 -2 -28 -6 -53 -8 -56 -12 -11 -91 -20 -142 -15 -36 3 -70 1 -88 -7 -21 -9 -37 -9 -57 -2 -44 17 -102 23 -204 22 -72 0 -98 3 -102 13 -3 7 -23 18 -44 25 -39 11 -40 13 -38 53 l1 41 115 1 c132 1 202 15 280 55 89 47 123 119 93 198 -7 19 -11 36 -8 39 2 2 37 6 77 7 133 5 217 32 263 87 44 52 29 158 -32 214 l-27 25 29 25 c24 20 38 24 72 20 24 -2 49 -9 57 -15z m-1534 -44 c0 -2 -10 -12 -22 -23 l-23 -19 19 23 c18 21 26 27 26 19z m-2862 -26 c26 -7 42 -18 42 -27 0 -23 -55 -143 -98 -216 -43 -73 -121 -158 -145 -158 -22 0 -84 55 -112 100 -31 50 -44 94 -56 180 -5 41 -12 82 -15 92 -4 15 1 18 28 19 18 0 62 6 98 13 76 15 197 13 258 -3z m-1099 -84 c21 -14 67 -62 101 -106 73 -94 88 -100 184 -71 37 12 72 20 78 18 14 -5 51 -152 39 -156 -27 -9 -65 -50 -82 -86 -43 -95 -7 -194 93 -260 64 -42 30 -95 -72 -111 -49 -8 -105 -37 -119 -63 -9 -15 -14 -13 -44 16 l-35 34 28 54 c42 79 26 136 -48 172 -47 24 -86 20 -194 -19 -98 -34 -127 -34 -139 -2 -7 18 -1 32 31 68 61 71 52 93 -51 125 -154 46 -209 114 -164 200 26 51 44 57 133 46 106 -12 112 -7 112 89 0 49 4 75 13 79 26 12 99 -3 136 -27z m1653 -89 c17 -18 44 -61 61 -96 37 -78 51 -86 114 -67 80 24 142 15 110 -17 -48 -48 -62 -140 -32 -215 l17 -42 -31 -38 c-54 -68 -56 -157 -4 -215 21 -24 109 -68 138 -68 40 -1 47 -13 30 -55 -13 -29 -15 -55 -10 -110 5 -55 4 -79 -8 -101 -18 -35 -73 -94 -109 -118 -26 -17 -28 -17 -57 5 -39 28 -67 124 -106 359 -19 120 -38 206 -47 223 -9 18 -11 18 -26 3 -27 -27 -26 -204 3 -396 6 -41 6 -41 -22 -33 -15 4 -41 8 -56 8 -22 0 -29 6 -33 25 -11 50 -48 134 -81 182 -46 66 -46 105 -2 160 19 24 34 49 33 56 -1 6 -2 16 -3 21 0 5 -26 36 -56 70 -30 34 -56 68 -56 76 -5 51 -1 65 16 65 8 0 29 13 46 28 31 27 32 32 30 96 -3 101 14 170 50 201 40 33 55 32 91 -7z m2126 -54 c2 -31 15 -72 47 -146 5 -14 2 -18 -12 -18 -20 0 -135 -69 -147 -89 -4 -5 -20 -20 -37 -32 l-31 -22 14 29 c21 42 22 101 4 129 -9 13 -16 26 -16 28 0 2 24 20 54 40 30 20 69 54 87 76 19 22 34 41 34 41 1 0 2 -16 3 -36z m141 -76 c15 -43 8 -45 -11 -3 -8 19 -12 35 -8 35 5 0 13 -14 19 -32z m-1540 -47 c26 -27 62 -77 80 -112 61 -115 70 -118 169 -63 l65 37 19 -23 c19 -24 57 -134 64 -190 13 -98 30 -114 121 -111 51 1 52 1 47 -26 -3 -16 -7 -35 -9 -43 -2 -8 -7 -31 -10 -50 -3 -19 -8 -43 -11 -52 -3 -9 -7 -26 -9 -39 -2 -12 -9 -37 -16 -56 l-11 -33 -91 93 c-95 97 -219 187 -322 232 -61 28 -75 30 -75 15 0 -15 48 -61 155 -152 50 -42 104 -91 121 -109 33 -36 96 -138 113 -182 9 -24 8 -27 -12 -32 -51 -12 -115 -11 -167 2 -83 22 -95 34 -95 96 l0 52 -40 -3 c-22 -2 -80 -17 -129 -33 -49 -16 -98 -29 -110 -29 -47 0 -73 38 -81 117 -1 12 13 40 32 64 63 79 41 112 -99 146 -141 35 -158 66 -78 151 46 48 48 58 20 109 -41 76 -36 135 12 167 39 26 70 25 116 -1 56 -32 88 -26 97 19 22 103 62 114 134 39z m-1669 -25 c16 -25 49 -60 73 -80 28 -23 48 -50 60 -83 19 -54 74 -101 144 -123 57 -18 210 -8 288 18 l60 20 15 -20 c8 -11 27 -35 42 -53 l27 -32 -24 -21 c-17 -15 -26 -36 -31 -71 -4 -34 -14 -57 -30 -72 -13 -12 -25 -21 -27 -18 -2 2 -14 21 -26 41 -24 40 -78 86 -124 106 -49 21 -73 15 -109 -27 l-34 -40 -59 30 c-75 36 -131 45 -176 26 -27 -11 -40 -11 -63 -2 -16 7 -60 12 -97 11 -62 -1 -69 1 -74 21 -3 12 -32 45 -64 74 -32 28 -63 61 -69 73 -23 53 18 111 87 122 21 3 60 18 87 33 40 21 52 34 64 69 8 23 18 42 22 42 4 0 21 -20 38 -44z m3457 -146 l38 -51 65 5 c36 3 90 8 122 12 50 5 57 4 67 -14 6 -12 11 -32 11 -46 0 -26 -12 -37 -110 -99 -51 -33 -61 -58 -43 -115 26 -89 6 -105 -125 -102 -119 4 -160 1 -165 -13 -2 -7 8 -38 22 -69 l27 -56 -23 -11 c-30 -14 -127 -14 -175 -1 -20 6 -62 12 -92 15 -62 4 -78 -7 -94 -65 -9 -35 -9 -35 -62 -33 -75 4 -220 45 -220 63 0 5 23 34 51 64 55 61 128 101 271 151 117 41 242 107 247 129 3 17 -2 18 -67 13 -93 -7 -205 -38 -395 -109 -88 -33 -161 -58 -163 -55 -7 7 55 149 88 199 35 56 63 75 75 55 20 -35 47 -37 93 -6 25 17 61 45 80 63 62 57 131 106 149 106 10 0 29 -13 42 -29 37 -44 58 -45 125 -9 102 55 109 58 116 58 4 0 25 -23 45 -50z m-911 -349 c-30 -97 -32 -100 -75 -121 -24 -11 -45 -20 -46 -18 -2 2 -6 30 -10 63 -3 33 -7 69 -9 80 -2 16 13 26 83 57 47 20 87 37 87 38 1 0 -12 -45 -30 -99z m1589 46 c74 -7 131 -27 167 -59 18 -17 47 -37 63 -45 56 -29 56 -31 12 -73 -28 -26 -50 -59 -66 -100 -15 -39 -38 -77 -63 -101 -43 -41 -125 -85 -179 -94 -18 -3 -35 -8 -38 -11 -7 -6 -67 107 -86 162 -18 53 -22 220 -7 284 8 34 10 35 57 38 28 1 55 4 60 6 6 2 15 2 20 0 6 -2 33 -5 60 -7z m-4184 -46 c14 -1 15 -7 8 -39 -11 -52 -4 -88 31 -144 16 -26 26 -50 22 -52 -4 -2 -48 -72 -96 -155 l-89 -150 -27 14 c-34 17 -102 81 -123 115 -15 24 -97 253 -97 271 0 23 42 49 79 49 28 0 54 10 91 35 28 19 69 41 90 48 35 12 53 13 111 8z m534 -43 c30 -35 43 -61 51 -104 11 -64 48 -91 84 -61 8 7 25 34 38 60 12 27 28 47 35 45 35 -12 85 -152 92 -259 6 -88 44 -103 106 -43 l37 36 15 -28 c23 -44 46 -150 50 -231 4 -71 4 -73 -19 -73 -37 0 -184 82 -323 179 -175 123 -241 154 -241 114 0 -41 111 -151 245 -243 96 -65 205 -175 205 -207 0 -6 -26 -19 -57 -28 -127 -37 -232 -41 -277 -12 -25 17 -26 20 -13 35 23 27 46 106 36 125 -11 19 -38 25 -146 32 -46 3 -95 11 -110 17 -32 13 -83 57 -83 71 0 5 15 24 34 43 40 40 50 78 27 97 -18 16 -65 35 -99 42 -62 11 -102 35 -102 61 0 6 23 28 50 48 62 45 63 64 10 131 -66 83 -72 94 -72 120 0 73 61 94 142 50 105 -58 128 -66 149 -53 11 6 29 29 41 50 21 37 22 37 48 24 15 -8 36 -25 47 -38z m-1500 -7 c22 -10 72 -44 110 -75 39 -31 80 -56 93 -56 30 0 58 31 73 79 25 84 85 56 214 -100 19 -22 78 -170 71 -176 -2 -2 -34 4 -72 13 -154 36 -517 10 -489 -36 8 -13 74 -24 220 -35 148 -11 200 -16 203 -20 2 -2 -4 -18 -13 -35 -10 -19 -17 -59 -18 -96 -1 -35 -4 -64 -5 -64 -2 0 -16 8 -30 18 -105 72 -226 73 -365 3 -94 -47 -107 -49 -153 -20 -36 22 -36 33 1 84 57 77 41 109 -78 154 -98 37 -133 60 -139 95 -7 33 17 86 39 87 20 2 24 2 143 -7 110 -8 116 -3 112 109 -3 103 7 113 83 78z m3333 -88 c-1 -37 20 -116 33 -124 24 -15 47 -10 149 36 55 25 102 45 105 45 3 0 -10 -21 -29 -47 -43 -61 -109 -198 -135 -283 -24 -77 -37 -161 -46 -290 -12 -192 -16 -236 -26 -272 -11 -42 -1 -71 27 -82 31 -12 51 4 122 97 79 103 232 283 232 271 0 -4 -9 -32 -21 -63 -16 -45 -18 -63 -10 -84 12 -32 40 -35 115 -12 27 8 74 15 105 15 l56 -1 -74 -34 c-97 -46 -187 -111 -273 -199 -167 -169 -257 -365 -285 -626 -13 -119 -7 -360 11 -446 2 -12 7 -39 11 -60 16 -101 49 -186 118 -299 26 -43 95 -116 155 -164 91 -73 176 -120 373 -206 253 -112 278 -123 326 -157 48 -32 49 -36 12 -43 -13 -3 -41 -12 -62 -22 -33 -14 -43 -15 -70 -4 -76 31 -134 42 -198 37 l-66 -5 -23 49 c-13 27 -43 69 -66 92 -45 44 -68 58 -265 152 -94 45 -126 67 -171 114 -71 74 -132 196 -153 303 -14 73 -25 141 -30 199 -3 36 -8 85 -10 110 -3 25 -7 74 -10 110 -7 80 -14 137 -20 170 -3 14 -7 42 -10 63 -29 223 -81 -228 -54 -468 26 -232 75 -384 163 -504 69 -93 138 -142 316 -224 137 -63 181 -96 210 -154 10 -21 17 -39 16 -40 -1 -1 -22 5 -46 14 -64 22 -183 19 -261 -7 l-62 -21 -51 22 c-33 15 -75 24 -118 25 -37 1 -72 5 -77 8 -5 4 -13 21 -16 39 -33 153 -210 221 -335 129 -53 -40 -77 -70 -117 -149 -20 -40 -37 -73 -39 -73 -1 0 -23 9 -48 20 -26 11 -63 21 -84 23 l-37 4 1 77 c1 75 3 80 83 239 81 162 121 280 121 358 0 44 -16 59 -35 33 -7 -11 -48 -89 -90 -174 -43 -85 -92 -181 -111 -213 -19 -32 -43 -84 -53 -115 l-19 -55 -99 -2 c-146 -3 -242 -37 -320 -115 -23 -24 -45 -51 -49 -62 -4 -14 -11 -17 -22 -12 -113 48 -229 54 -316 16 -27 -12 -51 -21 -53 -18 -10 10 238 152 474 270 62 31 138 72 170 93 119 75 236 222 297 373 32 77 69 223 70 275 1 41 -2 46 -266 480 -30 50 -76 130 -102 179 -122 231 -285 409 -456 497 -35 18 -41 24 -25 27 63 11 153 47 173 68 23 27 28 66 12 108 -9 25 -8 26 26 26 19 0 48 7 63 15 44 22 55 61 47 177 -6 95 -5 100 11 87 30 -24 43 -42 68 -96 31 -66 44 -148 50 -305 6 -195 59 -341 178 -500 99 -132 287 -298 337 -298 30 0 68 45 78 94 13 58 11 240 -3 338 -7 46 -15 106 -19 134 -10 88 -55 243 -91 318 -68 138 -188 248 -325 296 -36 13 -67 25 -69 27 -2 1 16 24 41 51 25 27 50 58 57 70 10 18 15 20 37 12 37 -14 108 -12 167 5 29 8 56 16 62 17 5 2 10 -22 11 -53 4 -141 29 -257 77 -362 30 -65 275 -477 285 -478 4 0 15 -2 25 -4 80 -15 188 452 157 675 -16 107 -19 121 -56 238 -3 9 1 10 15 3 27 -15 58 -2 70 27 5 15 17 59 26 97 20 84 23 95 29 95 3 0 5 -8 4 -17z m1230 -37 c20 -12 5 -40 -53 -96 -66 -66 -71 -90 -31 -142 31 -41 33 -81 7 -107 -21 -21 -39 -27 -181 -61 -46 -11 -88 -24 -94 -30 -18 -18 -9 -67 19 -105 27 -35 28 -38 12 -50 -26 -19 -203 -59 -269 -61 -31 -1 -68 -4 -83 -8 -14 -4 -25 -4 -25 -1 0 3 21 50 46 105 l47 100 96 59 c113 70 150 104 132 124 -37 46 -291 -69 -424 -193 -24 -22 -47 -37 -50 -33 -10 9 -8 86 2 101 4 8 37 32 72 55 45 30 69 54 83 83 l20 41 58 -4 c78 -7 113 9 135 58 19 43 15 43 98 25 102 -22 205 -4 266 46 25 21 41 58 35 82 -5 20 -2 22 33 20 21 0 43 -4 49 -8z m927 -90 c35 -80 60 -88 135 -41 148 93 226 109 259 54 16 -27 17 -35 6 -72 -24 -81 -10 -96 109 -122 143 -30 174 -58 167 -151 0 -11 -11 -30 -22 -43 -20 -22 -27 -22 -126 -17 -122 6 -136 -1 -148 -79 -10 -71 -22 -95 -45 -95 -11 0 -61 15 -110 34 -48 19 -97 32 -107 30 -19 -5 -53 -56 -53 -80 0 -16 -16 -19 -25 -4 -4 6 -24 19 -45 30 -36 18 -39 22 -30 46 35 92 -35 200 -136 210 -20 2 -73 -3 -118 -11 -79 -14 -81 -14 -98 6 -10 12 -18 25 -18 29 0 25 203 43 290 25 14 -3 84 -8 156 -11 101 -5 133 -4 139 6 18 29 -97 65 -299 94 l-48 8 24 26 c38 42 63 83 83 135 10 26 22 47 27 47 5 0 20 -24 33 -54z m-1715 -125 c-4 -9 -38 -37 -74 -61 -54 -36 -70 -54 -83 -90 -21 -54 -20 -131 2 -183 13 -32 14 -42 3 -55 -7 -9 -20 -25 -28 -35 -8 -11 -32 -38 -52 -61 l-37 -41 4 45 c2 25 6 81 9 125 7 96 12 123 32 195 15 52 77 193 95 216 7 8 28 4 74 -14 52 -21 62 -28 55 -41z m-865 -93 c38 -9 165 -5 198 7 11 5 17 -3 22 -37 4 -24 9 -52 11 -63 3 -11 5 -65 5 -120 1 -97 -10 -169 -49 -320 l-18 -69 -82 136 c-128 213 -173 321 -188 450 l-5 47 33 -10 c18 -6 51 -15 73 -21z m-2204 -92 c35 -27 69 -50 74 -52 6 -3 9 -22 7 -43 -6 -65 63 -165 127 -186 24 -7 27 -20 7 -32 -22 -13 -33 -46 -29 -82 3 -19 0 -31 -5 -27 -5 3 -34 -1 -63 -10 -52 -16 -107 -60 -136 -109 -10 -19 -12 -19 -28 -3 -17 15 -20 15 -54 0 -20 -9 -58 -33 -86 -53 -100 -72 -159 -91 -193 -61 -11 9 -29 49 -41 88 -23 81 -22 80 -151 91 -80 6 -111 20 -128 56 -12 24 -11 31 2 53 9 13 22 24 29 24 6 0 40 13 75 30 68 32 65 24 65 145 0 33 4 63 10 66 17 11 67 -8 134 -52 72 -47 114 -53 147 -19 18 17 22 35 24 116 5 110 10 116 98 111 43 -3 61 -11 115 -51z m3899 -57 c117 -46 250 -55 355 -24 53 15 54 15 91 -10 32 -21 45 -25 88 -20 192 18 182 19 206 -5 13 -13 19 -28 15 -38 -15 -40 -23 -108 -14 -124 5 -10 29 -27 52 -39 64 -32 78 -48 71 -78 -10 -39 -17 -43 -88 -47 -92 -4 -100 -8 -120 -64 -10 -28 -26 -54 -35 -59 -23 -11 -85 -4 -164 20 -67 21 -68 21 -62 52 12 65 12 73 -1 98 -18 37 -84 65 -179 79 -44 6 -89 13 -100 15 -11 2 -24 4 -30 4 -5 1 -10 19 -11 40 0 73 -50 103 -168 104 -45 1 -98 -2 -118 -6 -34 -7 -38 -6 -53 22 -20 39 -19 41 11 41 38 0 144 29 168 46 26 18 21 18 86 -7z m-2195 -28 c105 -49 189 -147 243 -286 31 -79 64 -252 81 -425 8 -81 7 -208 -2 -217 -9 -8 -106 77 -165 145 -123 140 -203 295 -217 422 -3 25 -7 95 -9 155 -3 61 -7 117 -10 125 -3 8 -7 29 -10 45 -3 17 -8 41 -12 54 -6 21 -5 23 17 16 13 -4 51 -19 84 -34z m-975 -153 c0 -2 -7 -21 -14 -43 -17 -47 -6 -77 43 -118 l30 -25 -47 -17 c-129 -49 -402 -256 -402 -306 0 -16 28 -4 259 110 190 93 343 152 358 137 13 -13 -75 -232 -113 -281 -15 -19 -15 -19 -26 -1 -53 93 -144 65 -192 -60 -60 -155 -96 -200 -178 -222 -42 -12 -44 -10 -68 53 -11 29 -25 45 -51 58 l-36 17 -114 -46 c-63 -26 -133 -52 -156 -60 -39 -12 -44 -11 -53 6 -25 47 -3 98 83 188 68 70 76 102 38 152 -37 51 -37 80 2 125 l35 40 94 1 c103 1 115 5 128 38 9 24 -2 49 -37 88 l-25 26 22 12 c39 21 127 7 214 -32 85 -39 104 -38 127 3 10 20 6 36 -34 117 -9 19 -8 25 3 32 13 8 110 15 110 8z m3126 -23 c19 -4 21 -9 15 -37 -10 -47 -3 -66 28 -82 25 -13 52 -19 156 -32 22 -2 64 -9 93 -15 58 -12 57 -10 31 -76 -9 -23 -10 -40 -3 -60 9 -27 42 -44 186 -95 l27 -10 -23 -32 c-40 -52 -38 -78 12 -132 64 -69 65 -70 52 -94 -18 -33 -51 -40 -116 -25 -80 19 -79 19 -121 -19 -57 -50 -73 -56 -109 -41 -17 7 -44 26 -61 41 -49 49 -101 84 -121 84 -12 0 -34 -17 -52 -40 -61 -77 -103 -49 -184 123 -29 61 -60 118 -69 126 -23 19 -64 17 -86 -3 -22 -20 -23 -18 -50 55 -19 52 -26 80 -36 144 -3 17 -8 42 -11 58 -7 32 0 33 58 8 112 -48 150 -69 250 -137 111 -76 148 -89 148 -55 0 20 -55 99 -94 136 -23 22 -152 115 -159 115 -3 0 -24 11 -47 24 l-42 24 49 16 c99 33 209 45 279 31z m-1467 -2219 c21 -11 54 -58 53 -73 -1 -2 3 -16 8 -33 5 -16 5 -32 2 -34 -4 -2 -34 4 -66 15 -33 11 -88 20 -126 21 l-69 1 23 33 c51 75 115 101 175 70z m-614 -81 c0 -13 -14 -27 -44 -43 -42 -22 -45 -22 -86 -6 -24 9 -67 19 -96 23 -51 6 -53 8 -31 19 36 20 100 30 182 29 68 -2 75 -4 75 -22z m-1355 -137 c107 -28 137 -56 267 -248 58 -85 117 -167 130 -182 l26 -27 -29 -7 c-64 -17 -167 -8 -238 21 -60 24 -72 26 -90 15 -56 -36 -86 -45 -158 -47 -102 -3 -158 17 -218 76 -38 36 -50 56 -58 96 -47 230 121 368 368 303z m1565 -13 c65 -31 93 -63 200 -220 48 -72 104 -152 123 -178 19 -26 32 -51 28 -54 -3 -3 -41 -6 -84 -6 -64 0 -89 5 -141 28 -51 23 -66 26 -80 17 -80 -59 -188 -67 -280 -21 -66 33 -81 50 -215 248 -54 80 -108 156 -119 168 -11 13 -17 26 -13 30 4 4 39 8 79 10 58 1 84 -3 132 -24 72 -30 86 -30 124 -4 62 44 162 46 246 6z m1512 3 c69 -32 91 -58 248 -288 43 -63 87 -125 97 -137 20 -21 20 -21 -3 -28 -35 -11 -131 -13 -164 -2 -16 5 -49 18 -73 29 -45 23 -38 24 -117 -19 -76 -42 -208 -22 -284 44 -32 27 -131 165 -250 346 -13 20 -28 37 -33 37 -4 0 -8 6 -8 14 0 10 17 17 54 21 70 9 128 0 185 -27 53 -25 76 -26 102 -2 48 43 166 49 246 12z"/>
</g>
</svg>